<mxfile host="app.diagrams.net" agent="Mozilla/5.0 (Windows NT 10.0; Win64; x64) AppleWebKit/537.36 (KHTML, like Gecko) Chrome/140.0.0.0 Safari/537.36 Edg/140.0.0.0" version="28.2.1">
  <diagram id="8o0BosQTcAM1sWlLDTMt" name="ページ1">
    <mxGraphModel dx="836" dy="1036" grid="1" gridSize="10" guides="1" tooltips="1" connect="1" arrows="1" fold="1" page="1" pageScale="1" pageWidth="827" pageHeight="1169" math="0" shadow="0">
      <root>
        <mxCell id="0" />
        <mxCell id="1" parent="0" />
        <mxCell id="2" value="&lt;b&gt;時間の流れ&lt;/b&gt;" style="text;html=1;align=center;verticalAlign=middle;resizable=0;points=[];autosize=1;strokeColor=none;fillColor=none;" parent="1" vertex="1">
          <mxGeometry x="40" y="431" width="80" height="30" as="geometry" />
        </mxCell>
        <mxCell id="xxCJCe1F8kV-4R3Zfw_s-9" value="" style="shape=umlLifeline;perimeter=lifelinePerimeter;whiteSpace=wrap;html=1;container=1;dropTarget=0;collapsible=0;recursiveResize=0;outlineConnect=0;portConstraint=eastwest;newEdgeStyle={&quot;curved&quot;:0,&quot;rounded&quot;:0};participant=umlBoundary;fillColor=#d5e8d4;strokeColor=#82b366;" vertex="1" parent="1">
          <mxGeometry x="295" y="120" width="50" height="380" as="geometry" />
        </mxCell>
        <mxCell id="xxCJCe1F8kV-4R3Zfw_s-10" value="" style="shape=umlLifeline;perimeter=lifelinePerimeter;whiteSpace=wrap;html=1;container=1;dropTarget=0;collapsible=0;recursiveResize=0;outlineConnect=0;portConstraint=eastwest;newEdgeStyle={&quot;curved&quot;:0,&quot;rounded&quot;:0};participant=umlBoundary;fillColor=#d5e8d4;strokeColor=#82b366;" vertex="1" parent="1">
          <mxGeometry x="365" y="120" width="50" height="380" as="geometry" />
        </mxCell>
        <mxCell id="xxCJCe1F8kV-4R3Zfw_s-11" value="" style="shape=umlLifeline;perimeter=lifelinePerimeter;whiteSpace=wrap;html=1;container=1;dropTarget=0;collapsible=0;recursiveResize=0;outlineConnect=0;portConstraint=eastwest;newEdgeStyle={&quot;curved&quot;:0,&quot;rounded&quot;:0};participant=umlEntity;fillColor=#dae8fc;strokeColor=#6c8ebf;" vertex="1" parent="1">
          <mxGeometry x="536" y="120" width="40" height="370" as="geometry" />
        </mxCell>
        <mxCell id="xxCJCe1F8kV-4R3Zfw_s-12" value="" style="shape=umlLifeline;perimeter=lifelinePerimeter;whiteSpace=wrap;html=1;container=1;dropTarget=0;collapsible=0;recursiveResize=0;outlineConnect=0;portConstraint=eastwest;newEdgeStyle={&quot;curved&quot;:0,&quot;rounded&quot;:0};participant=umlControl;fillColor=#f8cecc;strokeColor=#b85450;" vertex="1" parent="1">
          <mxGeometry x="445" y="120" width="40" height="380" as="geometry" />
        </mxCell>
        <mxCell id="xxCJCe1F8kV-4R3Zfw_s-16" value="Actor" style="shape=umlActor;verticalLabelPosition=bottom;verticalAlign=top;html=1;" vertex="1" parent="1">
          <mxGeometry x="185" y="128" width="30" height="60" as="geometry" />
        </mxCell>
        <mxCell id="xxCJCe1F8kV-4R3Zfw_s-18" value="" style="endArrow=none;html=1;rounded=0;fontSize=12;startSize=8;endSize=8;curved=1;dashed=1;endFill=0;" edge="1" parent="1">
          <mxGeometry relative="1" as="geometry">
            <mxPoint x="205" y="501.6" as="sourcePoint" />
            <mxPoint x="205" y="210" as="targetPoint" />
          </mxGeometry>
        </mxCell>
        <mxCell id="xxCJCe1F8kV-4R3Zfw_s-21" value="" style="edgeStyle=none;curved=1;rounded=0;orthogonalLoop=1;jettySize=auto;html=1;fontSize=12;startSize=8;endSize=8;entryX=0;entryY=0;entryDx=0;entryDy=0;" edge="1" parent="1" target="xxCJCe1F8kV-4R3Zfw_s-22">
          <mxGeometry relative="1" as="geometry">
            <mxPoint x="217" y="255" as="sourcePoint" />
          </mxGeometry>
        </mxCell>
        <mxCell id="xxCJCe1F8kV-4R3Zfw_s-20" value="" style="rounded=0;whiteSpace=wrap;html=1;" vertex="1" parent="1">
          <mxGeometry x="195" y="240" width="20" height="100" as="geometry" />
        </mxCell>
        <mxCell id="xxCJCe1F8kV-4R3Zfw_s-33" value="" style="edgeStyle=none;curved=1;rounded=0;orthogonalLoop=1;jettySize=auto;html=1;fontSize=12;startSize=8;endSize=8;entryX=0;entryY=0;entryDx=0;entryDy=0;" edge="1" parent="1" source="xxCJCe1F8kV-4R3Zfw_s-9" target="xxCJCe1F8kV-4R3Zfw_s-32">
          <mxGeometry relative="1" as="geometry" />
        </mxCell>
        <mxCell id="xxCJCe1F8kV-4R3Zfw_s-22" value="" style="rounded=0;whiteSpace=wrap;html=1;" vertex="1" parent="1">
          <mxGeometry x="310" y="255" width="20" height="70" as="geometry" />
        </mxCell>
        <mxCell id="xxCJCe1F8kV-4R3Zfw_s-23" value="" style="rounded=0;whiteSpace=wrap;html=1;" vertex="1" parent="1">
          <mxGeometry x="191" y="530" width="20" height="140" as="geometry" />
        </mxCell>
        <mxCell id="xxCJCe1F8kV-4R3Zfw_s-24" value="活性区間&lt;div&gt;Activation Bar&lt;/div&gt;" style="text;html=1;align=center;verticalAlign=middle;resizable=0;points=[];autosize=1;strokeColor=none;fillColor=none;fontSize=16;" vertex="1" parent="1">
          <mxGeometry x="196" y="531" width="120" height="50" as="geometry" />
        </mxCell>
        <mxCell id="xxCJCe1F8kV-4R3Zfw_s-25" value="" style="endArrow=none;dashed=1;html=1;rounded=0;fontSize=12;startSize=8;endSize=8;curved=1;" edge="1" parent="1">
          <mxGeometry width="50" height="50" relative="1" as="geometry">
            <mxPoint x="321" y="660" as="sourcePoint" />
            <mxPoint x="321" y="550" as="targetPoint" />
          </mxGeometry>
        </mxCell>
        <mxCell id="xxCJCe1F8kV-4R3Zfw_s-26" value="生存線&lt;div&gt;Life Line&lt;/div&gt;" style="text;html=1;align=center;verticalAlign=middle;resizable=0;points=[];autosize=1;strokeColor=none;fillColor=none;fontSize=16;" vertex="1" parent="1">
          <mxGeometry x="325" y="541" width="80" height="50" as="geometry" />
        </mxCell>
        <mxCell id="xxCJCe1F8kV-4R3Zfw_s-27" value="" style="endArrow=classic;html=1;rounded=0;fontSize=12;startSize=8;endSize=8;curved=1;fontStyle=1;strokeWidth=3;" edge="1" parent="1">
          <mxGeometry width="50" height="50" relative="1" as="geometry">
            <mxPoint x="80" y="150" as="sourcePoint" />
            <mxPoint x="80" y="430" as="targetPoint" />
          </mxGeometry>
        </mxCell>
        <mxCell id="xxCJCe1F8kV-4R3Zfw_s-28" value="学生登録を選択()" style="text;html=1;align=center;verticalAlign=middle;resizable=0;points=[];autosize=1;strokeColor=none;fillColor=none;fontSize=13;" vertex="1" parent="1">
          <mxGeometry x="200" y="210" width="120" height="30" as="geometry" />
        </mxCell>
        <mxCell id="xxCJCe1F8kV-4R3Zfw_s-29" value="操作()&lt;div&gt;Method&lt;/div&gt;" style="text;html=1;align=center;verticalAlign=middle;resizable=0;points=[];autosize=1;strokeColor=none;fillColor=none;fontSize=16;" vertex="1" parent="1">
          <mxGeometry x="421" y="541" width="80" height="50" as="geometry" />
        </mxCell>
        <mxCell id="xxCJCe1F8kV-4R3Zfw_s-30" value="" style="edgeStyle=none;curved=1;rounded=0;orthogonalLoop=1;jettySize=auto;html=1;fontSize=12;startSize=8;endSize=8;entryX=0;entryY=0;entryDx=0;entryDy=0;" edge="1" parent="1">
          <mxGeometry relative="1" as="geometry">
            <mxPoint x="436" y="591" as="sourcePoint" />
            <mxPoint x="529" y="591" as="targetPoint" />
          </mxGeometry>
        </mxCell>
        <mxCell id="xxCJCe1F8kV-4R3Zfw_s-31" value="メッセージ&lt;div&gt;Message&lt;/div&gt;" style="text;html=1;align=center;verticalAlign=middle;resizable=0;points=[];autosize=1;strokeColor=none;fillColor=none;fontSize=16;" vertex="1" parent="1">
          <mxGeometry x="536" y="541" width="100" height="50" as="geometry" />
        </mxCell>
        <mxCell id="xxCJCe1F8kV-4R3Zfw_s-32" value="" style="rounded=0;whiteSpace=wrap;html=1;" vertex="1" parent="1">
          <mxGeometry x="380" y="280" width="20" height="40" as="geometry" />
        </mxCell>
        <mxCell id="xxCJCe1F8kV-4R3Zfw_s-34" value="表示()" style="text;html=1;align=center;verticalAlign=middle;resizable=0;points=[];autosize=1;strokeColor=none;fillColor=none;fontSize=13;" vertex="1" parent="1">
          <mxGeometry x="329" y="225" width="60" height="30" as="geometry" />
        </mxCell>
        <mxCell id="xxCJCe1F8kV-4R3Zfw_s-36" value="" style="endArrow=none;html=1;rounded=0;fontSize=12;startSize=8;endSize=8;curved=1;dashed=1;endFill=0;" edge="1" parent="1" target="xxCJCe1F8kV-4R3Zfw_s-35">
          <mxGeometry relative="1" as="geometry">
            <mxPoint x="205" y="460" as="sourcePoint" />
            <mxPoint x="205" y="210" as="targetPoint" />
          </mxGeometry>
        </mxCell>
        <mxCell id="xxCJCe1F8kV-4R3Zfw_s-35" value="" style="rounded=0;whiteSpace=wrap;html=1;" vertex="1" parent="1">
          <mxGeometry x="195" y="361" width="20" height="100" as="geometry" />
        </mxCell>
        <mxCell id="xxCJCe1F8kV-4R3Zfw_s-39" value="" style="rounded=0;whiteSpace=wrap;html=1;" vertex="1" parent="1">
          <mxGeometry x="380" y="375" width="20" height="80" as="geometry" />
        </mxCell>
        <mxCell id="xxCJCe1F8kV-4R3Zfw_s-40" value="" style="rounded=0;whiteSpace=wrap;html=1;" vertex="1" parent="1">
          <mxGeometry x="455" y="385" width="20" height="60" as="geometry" />
        </mxCell>
        <mxCell id="xxCJCe1F8kV-4R3Zfw_s-41" value="" style="rounded=0;whiteSpace=wrap;html=1;" vertex="1" parent="1">
          <mxGeometry x="546" y="400" width="20" height="40" as="geometry" />
        </mxCell>
        <mxCell id="xxCJCe1F8kV-4R3Zfw_s-42" value="" style="edgeStyle=none;curved=1;rounded=0;orthogonalLoop=1;jettySize=auto;html=1;fontSize=12;startSize=8;endSize=8;entryX=0;entryY=0;entryDx=0;entryDy=0;" edge="1" parent="1" target="xxCJCe1F8kV-4R3Zfw_s-39">
          <mxGeometry relative="1" as="geometry">
            <mxPoint x="216" y="375" as="sourcePoint" />
            <mxPoint x="363" y="360" as="targetPoint" />
          </mxGeometry>
        </mxCell>
        <mxCell id="xxCJCe1F8kV-4R3Zfw_s-43" value="" style="edgeStyle=none;curved=1;rounded=0;orthogonalLoop=1;jettySize=auto;html=1;fontSize=12;startSize=8;endSize=8;entryX=0;entryY=0;entryDx=0;entryDy=0;exitX=0.943;exitY=0.13;exitDx=0;exitDy=0;exitPerimeter=0;" edge="1" parent="1" source="xxCJCe1F8kV-4R3Zfw_s-39" target="xxCJCe1F8kV-4R3Zfw_s-40">
          <mxGeometry relative="1" as="geometry">
            <mxPoint x="410" y="370" as="sourcePoint" />
            <mxPoint x="503" y="370" as="targetPoint" />
          </mxGeometry>
        </mxCell>
        <mxCell id="xxCJCe1F8kV-4R3Zfw_s-44" value="" style="edgeStyle=none;curved=1;rounded=0;orthogonalLoop=1;jettySize=auto;html=1;fontSize=12;startSize=8;endSize=8;entryX=0;entryY=0;entryDx=0;entryDy=0;exitX=1;exitY=0.25;exitDx=0;exitDy=0;" edge="1" parent="1" source="xxCJCe1F8kV-4R3Zfw_s-40" target="xxCJCe1F8kV-4R3Zfw_s-41">
          <mxGeometry relative="1" as="geometry">
            <mxPoint x="480" y="400" as="sourcePoint" />
            <mxPoint x="593" y="380" as="targetPoint" />
          </mxGeometry>
        </mxCell>
        <mxCell id="xxCJCe1F8kV-4R3Zfw_s-45" value="学生データ入力()" style="text;html=1;align=center;verticalAlign=middle;resizable=0;points=[];autosize=1;strokeColor=none;fillColor=none;fontSize=13;" vertex="1" parent="1">
          <mxGeometry x="209" y="340" width="120" height="30" as="geometry" />
        </mxCell>
        <mxCell id="xxCJCe1F8kV-4R3Zfw_s-46" value="起動()" style="text;html=1;align=center;verticalAlign=middle;resizable=0;points=[];autosize=1;strokeColor=none;fillColor=none;fontSize=13;" vertex="1" parent="1">
          <mxGeometry x="395" y="355" width="60" height="30" as="geometry" />
        </mxCell>
        <mxCell id="xxCJCe1F8kV-4R3Zfw_s-47" value="学生データ登録()" style="text;html=1;align=center;verticalAlign=middle;resizable=0;points=[];autosize=1;strokeColor=none;fillColor=none;fontSize=13;" vertex="1" parent="1">
          <mxGeometry x="460" y="361" width="120" height="30" as="geometry" />
        </mxCell>
      </root>
    </mxGraphModel>
  </diagram>
</mxfile>
